<svg width="188" height="188" viewBox="0 0 188 188" fill="none" xmlns="http://www.w3.org/2000/svg">
<circle cx="94" cy="95" r="91" fill="#F4F4F4"/>
<path d="M94.9109 43.6265C104.312 43.9509 113.625 45.5177 121.989 47.8125C132.221 50.6137 140.712 56.596 148.633 63.5278C151.481 66.0204 154.267 68.5763 157.005 71.1876C158.128 72.2559 159.284 73.3479 159.196 75.1837C159.086 77.4389 157.123 79.6546 154.892 80.0107C152.407 80.4063 150.057 79.9157 147.715 79.2431C144.201 78.2302 140.688 77.2174 137.214 76.1016C123.667 71.7415 110.381 67.8167 96.0267 67.8167C80.3588 67.8167 64.8572 71.1639 50.0677 76.1491C47.2665 77.0987 44.5048 78.1986 41.6641 79.0136C38.9499 79.797 36.1882 80.4775 33.2841 80.0107C32.295 79.8524 31.5828 79.3935 30.9261 78.7446C29.6362 77.4627 28.7025 75.9671 29.296 74.0996C29.5808 73.1975 30.2535 72.3588 30.9261 71.6466C34.7164 67.6109 38.8866 63.9788 43.2625 60.6158C46.8075 57.8858 50.4634 55.2745 54.2458 52.8927C65.9017 45.581 80.5013 43.128 94.9109 43.6265Z" fill="#ADDAFF"/>
<path d="M34.7392 91.3738C34.8658 91.3738 34.9924 91.3738 35.1269 91.3738C36.8361 91.2393 38.5533 90.9861 40.2546 90.7882C41.9559 90.5904 43.76 90.3609 45.5009 90.084C49.8214 89.4035 54.134 88.628 58.415 87.7021C60.8047 87.1878 63.147 86.3807 65.4497 85.534C70.2767 83.7615 75.1986 82.4162 80.3737 82.3767C85.7071 82.3371 91.0484 82.4637 96.3818 82.4558C99.0959 82.4558 101.81 82.3134 104.524 82.2738C109.66 82.1947 114.613 83.2234 119.496 84.7268C123.254 85.8821 127.021 86.9979 130.827 87.9949C132.774 88.5093 134.792 88.715 136.778 89.079C139.041 89.4905 141.296 89.9336 143.559 90.3214C144.77 90.5271 145.997 90.7091 147.215 90.7882C150.167 90.9623 153.126 91.0335 156.078 91.2314C156.655 91.2709 157.281 91.5716 157.763 91.9277C158.436 92.4183 158.42 93.2808 157.692 93.6528C157.035 93.993 156.204 94.175 155.468 94.1434C154.115 94.0801 152.762 93.8743 151.441 93.5974C148.829 93.0514 146.234 93.1147 143.631 93.5657C140.497 94.1038 137.356 94.6102 134.23 95.1958C131.848 95.6389 129.498 96.3036 127.1 96.6439C124.703 96.9841 122.265 97.1978 119.836 97.2136C115.389 97.2532 110.942 97.1266 106.495 97.0316C102.016 96.9367 97.5292 96.636 93.0583 96.6993C86.8149 96.7942 80.5715 97.1899 74.3281 97.3561C71.9384 97.4194 69.5328 97.2769 67.1431 97.1108C64.3735 96.9129 61.604 96.6755 58.8581 96.2799C56.7453 95.9713 54.68 95.3461 52.5752 94.9426C50.0746 94.4678 47.5425 94.1117 45.034 93.6369C41.5602 92.9801 38.1339 93.1147 34.7075 93.9218C33.8846 94.1117 33.0141 94.1275 32.1674 94.175C31.8351 94.1908 31.479 94.1117 31.1546 94.0088C30.4186 93.7715 29.754 93.36 29.9122 92.4737C30.0626 91.627 30.7589 91.2472 31.5898 91.2155C32.3415 91.1918 33.1012 91.2472 33.8529 91.3026C34.1536 91.3263 34.4464 91.3659 34.7471 91.3817L34.7392 91.3738Z" fill="#ADDAFF"/>
<path d="M94.1346 146.314C92.5203 146.314 90.9061 146.14 89.3551 145.839C85.0029 144.985 81.1335 142.674 77.6517 140.015C74.5656 137.657 71.9939 134.919 70.4588 131.287C69.4063 128.803 70.53 126.603 73.0938 125.843C75.3411 125.178 77.5409 125.788 79.7566 125.74C82.2175 125.693 84.726 126.033 87.1949 126.104C89.7982 126.183 92.4096 126.223 95.0129 126.215C98.0278 126.207 101.035 126.136 104.05 126.009C106.883 125.891 109.755 125.503 112.588 125.503C113.988 125.416 115.286 125.724 116.505 126.334C118.135 127.149 118.673 129.578 117.723 131.62C116.093 135.141 113.688 138.037 110.467 140.174C108.101 141.748 105.672 143.434 103.029 144.589C100.275 145.792 97.189 146.33 94.1346 146.322V146.314Z" fill="#ADDAFF"/>
<path d="M107.499 119.773C99.7288 120.122 91.9344 120.027 84.1638 119.9C80.3893 119.837 76.6148 119.401 72.8561 119.061C68.7571 118.689 64.5237 117.993 60.8283 116.086C60.2902 115.809 59.7442 115.492 59.4039 114.994C59.1507 114.63 59.032 114.084 59.3485 113.759C59.7284 113.38 60.3693 113.617 60.852 113.854C65.2358 116.07 70.1657 116.988 75.0559 117.407C84.6861 118.222 94.4587 118.246 104.113 117.882C109.66 117.676 115.341 117.297 120.801 116.268C123.136 115.896 125.391 115.113 127.424 113.839C127.662 113.688 127.931 113.475 128.184 113.475C128.524 113.475 128.96 113.562 129.165 113.783C129.324 113.957 129.324 114.495 129.165 114.693C128.754 115.192 128.279 115.698 127.725 116.015C124.283 117.953 120.588 118.507 116.718 119.006C113.648 119.401 110.578 119.631 107.507 119.773H107.499Z" fill="#ADDAFF"/>
<circle cx="94" cy="94.209" r="91" stroke="#ADDAFF" stroke-width="5"/>
<path d="M71.6968 108.702V71.4536H115.153V108.702H71.6968ZM78.2888 102.494H108.561V77.6616H78.2888V102.494Z" fill="black"/>
</svg>
