<svg width="188" height="188" viewBox="0 0 188 188" fill="none" xmlns="http://www.w3.org/2000/svg">
<ellipse cx="93.959" cy="95" rx="90.959" ry="91" fill="#F4F4F4"/>
<path d="M69.68 87.8116C69.2213 88.2433 68.7467 88.5594 68.4699 88.9912C67.3151 90.8185 66.2157 92.6766 65.1163 94.5424C64.7366 95.1746 64.4519 95.8685 64.0643 96.4931C63.653 97.1561 63.0202 97.5108 62.2135 97.318C61.3118 97.1021 60.505 96.6781 60.4338 95.6527C60.3073 93.8408 60.244 92.029 60.1807 90.2094C60.1175 88.3127 59.548 87.9118 57.713 88.6674C56.9458 88.9835 56.226 89.4846 55.5774 90.0089C53.3074 91.8439 50.7764 92.8 47.7945 92.399C45.9358 92.1446 44.2036 91.5355 42.859 90.2556C41.5223 88.9835 41.3008 87.3335 41.8308 85.6296C42.6217 83.1007 44.0454 80.8571 45.6115 78.7369C48.3086 75.0977 48.1742 71.3352 46.3392 67.4957C45.9516 66.6784 45.1527 65.9768 44.4013 65.3985C41.2296 62.9776 37.7732 61.0809 33.945 59.7394C31.849 59.0069 29.7925 57.9352 28.4242 56.0154C25.9011 52.4688 26.2491 47.2183 29.0886 43.903C32.6874 39.701 36.2783 35.4836 39.6557 31.112C41.5223 28.6911 43.1121 26.0311 44.5121 23.3249C45.4296 21.5439 45.8488 19.5007 46.355 17.5347C46.6081 16.5786 46.964 15.8308 47.8657 15.3373C55.7356 11.0814 64.0564 7.98197 72.8438 6.09301C78.6177 4.8517 84.4628 4.19635 90.387 4.03444C98.2965 3.81856 106.072 4.6204 113.767 6.36286C121.44 8.09762 128.748 10.7884 135.708 14.3736C141.11 17.1569 146.173 20.4414 150.91 24.2116C154.612 27.1491 158.076 30.3333 161.264 33.7874C165.614 38.5137 169.442 43.6254 172.701 49.1381C178.775 59.4387 182.604 70.464 184.225 82.2449C184.984 87.7576 185.15 93.3011 184.874 98.8369C184.502 106.308 183.118 113.617 180.808 120.764C177.984 129.492 173.927 137.634 168.541 145.12C166.476 147.988 164.135 150.656 161.912 153.408C161.802 153.547 161.636 153.647 161.375 153.863C161.201 152.483 161.106 151.211 160.876 149.962C159.935 144.85 159.144 139.708 157.222 134.82C155.316 129.97 153.41 125.113 151.575 120.232C151.084 118.914 150.91 117.487 150.523 116.123C149.21 111.512 149.51 106.794 149.495 102.098C149.495 101.15 149.661 100.194 149.661 99.2455C149.661 98.7058 149.526 98.143 149.328 97.6341C148.901 96.5162 147.644 96.254 146.845 97.1561C146.386 97.6727 145.991 98.328 145.817 98.9834C145.216 101.258 141.941 102.229 140.359 100.595C138.508 98.675 136.491 96.9017 134.601 95.0204C131.058 91.4815 127.229 88.2973 122.729 85.9612C120.997 85.0591 119.122 84.504 117.137 84.4654C110.888 84.3421 104.64 84.265 98.3835 84.1339C95.0774 84.0645 91.7633 83.9797 88.4571 83.8178C85.2538 83.6636 82.0584 83.3166 78.855 83.2241C77.1545 83.1778 75.5805 83.918 73.9195 84.6967C74.7816 85.0282 75.5489 85.2287 76.2053 85.5988C78.3725 86.817 79.5827 88.8524 80.7691 90.8879C82.3035 93.5324 83.6403 96.3234 85.8074 98.5362C88.1645 100.942 91.2017 102.222 94.5791 102.368C97.9406 102.515 101.326 102.391 104.695 102.276C108.697 102.137 112.7 101.697 116.702 101.736C121.187 101.782 125.292 103.309 128.614 106.269C130.899 108.313 132.529 110.857 133.335 113.887C134.055 116.585 134.474 119.284 134.522 122.067C134.546 123.694 134.791 125.321 134.822 126.948C134.846 128.05 134.728 129.16 134.585 130.255C134.451 131.281 134.886 132.46 135.693 132.923C136.46 133.362 137.338 133.177 138.303 132.483C139.181 131.844 140.185 131.304 141.285 131.813C142.336 132.306 142.803 133.316 142.779 134.419C142.748 135.922 142.597 137.418 142.439 138.914C142.123 141.959 143.119 144.735 144.219 147.503C145.793 151.473 146.9 155.56 147.217 159.823C147.351 161.596 147.43 163.378 147.533 165.151C147.58 165.883 147.304 166.408 146.663 166.862C138.579 172.568 129.768 176.847 120.229 179.676C117.453 180.501 114.606 181.111 111.79 181.804C111.371 181.912 110.936 181.966 110.485 182.043C110.398 181.882 110.303 181.774 110.295 181.673C110.137 177.579 108.531 173.894 106.855 170.239C105.85 168.057 104.933 165.806 103.675 163.763C101.444 160.139 97.8615 158.466 93.6536 158.451C88.9238 158.435 84.1544 158.512 79.4799 159.098C74.8449 159.677 70.2416 159.746 65.6146 159.669C62.2372 159.615 59.0339 158.767 56.2023 156.978C54.0351 155.606 52.6351 153.555 51.7967 151.142C50.721 148.027 51.0216 144.819 51.0769 141.628C51.1323 138.397 51.2589 135.167 51.2589 131.936C51.2589 129.384 51.0928 126.832 50.2939 124.365C49.5741 122.152 48.277 120.286 46.6635 118.598C45.4217 117.295 44.0929 116.038 43.0251 114.604C41.0398 111.929 41.2771 109.353 42.7404 106.986C44.0929 104.804 46.4024 104.234 48.8623 104.55C52.8249 105.067 55.8147 107.279 58.409 110.094C58.9706 110.703 59.5243 111.312 60.244 112.098C60.4813 111.481 60.6474 111.211 60.679 110.926C60.8451 109.523 60.9638 108.112 61.1378 106.709C61.2485 105.791 61.3355 104.866 61.5807 103.979C61.8022 103.185 62.3242 102.522 63.2496 102.399C64.1276 102.283 64.8236 102.692 65.2191 103.417C65.7727 104.45 66.1682 105.56 66.7219 106.593C68.4224 109.77 70.732 112.407 74.0223 114.103C74.9636 114.588 75.9918 114.658 77.3127 114.326C76.759 113.879 76.3556 113.571 75.9839 113.239C74.5444 111.967 72.9229 110.818 71.7286 109.353C70.732 108.135 70.0201 106.601 69.5614 105.09C68.9444 103.077 68.4699 100.973 68.3433 98.8832C68.2247 96.8554 68.5569 94.7814 68.8021 92.746C68.9919 91.15 69.3557 89.5772 69.6721 87.8116H69.68Z" fill="#ADDAFF"/>
<ellipse cx="93.959" cy="94.209" rx="90.959" ry="91" stroke="#ADDAFF" stroke-width="5"/>
<path d="M106 101.999C127 99.9973 130.5 105.5 134 116C116.167 115 78.8708 114.045 76.5 113.498C70 111.999 66 101 69.5 88.9986C71.7059 81.4346 76.9997 84.9986 79.4999 88.4989C85.9998 98.9986 85 104 106 101.999Z" fill="url(#paint0_linear_1093_35939)"/>
<path d="M72.4955 115.472V88.016H77.4395V110.816H105.087V115.472H72.4955Z" fill="black"/>
<defs>
<linearGradient id="paint0_linear_1093_35939" x1="95" y1="93" x2="97.2701" y2="116.023" gradientUnits="userSpaceOnUse">
<stop stop-color="#FF7777"/>
<stop offset="0.872165" stop-color="white" stop-opacity="0"/>
</linearGradient>
</defs>
</svg>
