<svg width="188" height="188" viewBox="0 0 188 188" fill="none" xmlns="http://www.w3.org/2000/svg">
<circle cx="94" cy="95" r="91" fill="#F4F4F4"/>
<path d="M135.847 100.737C135.863 108.88 133.979 116.184 129.532 122.656C124.745 129.628 118.177 134.043 109.852 135.745C104.464 136.852 98.9246 136.528 93.4646 136.401C88.3053 136.283 83.1697 136.781 78.0737 135.658C68.8866 133.64 62.0102 128.441 57.3178 120.314C54.4533 115.353 53.0368 109.972 52.5858 104.274C52.0635 97.6908 53.0289 91.3208 55.2129 85.1565C58.3544 76.286 63.4504 68.6894 70.6433 62.5648C74.3783 59.3837 78.5326 56.9069 83.0589 55.0394C87.514 53.2036 92.151 52.3648 96.9463 52.8396C100.317 53.172 103.522 54.2798 106.632 55.6408C111.554 57.7853 115.89 60.8001 119.775 64.4718C122.751 67.273 125.283 70.4541 127.53 73.8804C130.395 78.2563 132.523 82.9725 133.987 87.9656C135.23 92.2228 135.942 96.5988 135.855 100.745L135.847 100.737ZM111.712 66.458L111.728 66.5767C112.82 66.458 113.944 66.4738 114.988 66.181C116.737 65.6825 116.903 64.6538 115.613 63.3798C113.239 61.0296 110.256 59.6132 107.344 58.1255C104.313 56.5746 101.061 55.6171 97.6901 54.9128C94.4458 54.2402 91.3597 54.6359 88.2657 55.4193C85.053 56.2343 81.9669 57.4213 79.0786 59.0909C76.7601 60.4282 74.3625 61.631 72.4633 63.6014C71.5454 64.5509 71.672 65.5954 72.8986 66.0544C73.5 66.2839 74.1726 66.4342 74.8214 66.4421C77.8126 66.4817 80.8116 66.4421 83.8027 66.4659C86.5486 66.4896 89.2944 66.6083 92.0323 66.6083C95.3479 66.6083 98.6555 66.4896 101.971 66.4659C105.215 66.4421 108.468 66.4659 111.712 66.4659V66.458Z" fill="#ADDAFF"/>
<path d="M107.478 25.974C110.397 26.5595 113.246 27.335 116 28.2767C128.985 32.7396 140.111 41.5943 147.438 53.2027C150.453 57.9664 152.527 63.0861 153.484 68.6332C153.864 70.833 153.848 73.112 152.4 75.0032C150.699 77.2267 147.953 77.931 145.579 76.6412C144.756 76.1901 143.996 75.5967 143.308 74.9557C140.562 72.3919 137.959 69.6619 135.118 67.2167C131.771 64.3443 128.376 61.4877 124.736 59.003C120.7 56.2493 116.459 53.7804 112.154 51.4698C108.498 49.5074 104.479 48.447 100.348 47.8852C92.4191 46.8011 84.7276 47.6161 77.3843 50.9C72.4465 53.1078 67.8016 55.8694 63.4336 59.0505C60.3 61.3294 57.2614 63.7508 54.3336 66.2988C51.1209 69.0921 48.106 72.0991 44.9804 74.9874C43.3028 76.5383 41.467 77.7174 39.0218 77.116C36.4264 76.4671 34.5826 73.8241 34.6538 71.1733C34.7963 65.919 36.5134 61.1158 38.9111 56.5579C41.6648 51.3036 45.2969 46.6587 49.3009 42.2669C63.489 26.6782 87.0461 21.8592 107.478 25.974Z" fill="#ADDAFF"/>
<path d="M94.0954 165.244C93.1537 165.244 92.22 165.188 91.2863 165.054C86.7916 164.413 79.9627 161.414 78.6254 156.634C78.4909 156.144 78.4592 155.558 78.5779 155.068C79.1081 152.86 80.1368 152.124 82.3999 152.417C84.1803 152.646 85.937 153.034 87.7016 153.335C90.4316 153.794 93.2091 154.094 95.9787 153.952C98.7483 153.809 101.265 153.058 103.923 152.615C104.968 152.44 106.068 152.377 107.12 152.472C109.138 152.662 110.293 154.981 109.645 156.927C107.801 162.49 99.2705 165.22 94.0954 165.252V165.244Z" fill="#ADDAFF"/>
<path d="M93.9556 150.526C91.2968 150.486 88.6459 150.17 85.9713 149.679C82.0227 148.959 78.1532 147.891 74.4816 146.229C73.5953 145.833 72.7565 145.295 71.989 144.702C71.6725 144.457 71.6091 143.887 71.4351 143.46C71.894 143.46 72.4163 143.301 72.8119 143.46C74.4104 144.124 75.9138 145.082 77.5598 145.572C80.8199 146.554 84.1197 147.424 87.4511 148.089C94.3671 149.473 101.418 148.571 108.144 146.403C110.533 145.636 112.82 144.544 115.155 143.594C115.447 143.475 115.732 143.27 116.025 143.254C116.302 143.238 116.706 143.325 116.832 143.523C116.943 143.689 116.856 144.188 116.69 144.322C115.898 144.939 115.115 145.628 114.221 146.031C109.528 148.16 104.567 149.378 99.4947 150.146C97.6351 150.431 95.7914 150.534 93.9635 150.51L93.9556 150.526Z" fill="#ADDAFF"/>
<circle cx="94" cy="94.209" r="91" stroke="#ADDAFF" stroke-width="5"/>
<path d="M72.9128 99.4207C72.9128 96.5407 73.4248 93.8527 74.4488 91.3567C75.4088 88.9247 76.8168 86.8127 78.6728 84.9567C80.4008 83.2287 82.5768 81.7567 85.1368 80.7327C87.5688 79.7087 90.3208 79.2607 93.4568 79.2607C96.4648 79.2607 99.2808 79.7087 101.777 80.7327C104.273 81.7567 106.385 83.2287 108.241 84.9567C109.969 86.8127 111.441 88.9247 112.401 91.3567C113.425 93.8527 113.937 96.5407 113.937 99.4207C113.937 102.301 113.425 104.989 112.401 107.421C111.441 109.917 109.969 112.093 108.241 113.821C106.385 115.677 104.273 117.021 101.777 118.045C99.2808 119.069 96.4648 119.581 93.4568 119.581C90.3208 119.581 87.5688 119.069 85.1368 118.045C82.5768 117.021 80.4008 115.677 78.6728 113.821C76.8168 112.093 75.4088 109.917 74.4488 107.421C73.4248 104.989 72.9128 102.301 72.9128 99.4207ZM79.5048 99.4207C79.5048 101.469 79.8248 103.325 80.5928 104.989C81.1688 106.717 82.1928 108.189 83.4088 109.405C84.6888 110.621 86.0968 111.645 87.8248 112.349C89.4888 113.053 91.3448 113.373 93.4568 113.373C95.4408 113.373 97.2968 113.053 99.0248 112.349C100.689 111.645 102.161 110.621 103.441 109.405C104.657 108.189 105.617 106.717 106.321 104.989C106.961 103.325 107.345 101.469 107.345 99.4207C107.345 97.4367 106.961 95.5807 106.321 93.8527C105.617 92.1247 104.657 90.6527 103.441 89.4367C102.161 88.1567 100.689 87.2607 99.0248 86.4927C97.2968 85.7887 95.4408 85.4688 93.4568 85.4688C91.3448 85.4688 89.4888 85.7887 87.8248 86.4927C86.0968 87.2607 84.6888 88.1567 83.4088 89.4367C82.1928 90.6527 81.1688 92.1247 80.5928 93.8527C79.8248 95.5807 79.5048 97.4367 79.5048 99.4207Z" fill="black"/>
</svg>
