<svg width="253" height="212" viewBox="0 0 253 212" fill="none" xmlns="http://www.w3.org/2000/svg">
<path d="M40.3528 0.51V17.97H37.2628V3.42H19.9828V0.51H40.3528ZM77.4164 17.67V0.51H80.5064V14.76H97.7864V17.67H77.4164ZM135.42 17.97V3.42H133.68V0.51H155.22V3.42H138.51V15.06H155.22V17.97H135.42ZM212.654 0.51V10.5H195.374V15.06H213.224V17.97H192.284V7.65H209.564V3.42H192.284V0.51H212.654ZM19.9828 81.97V64.51H40.3528V81.97H19.9828ZM23.0728 79.06H37.2628V67.42H23.0728V79.06ZM77.4164 81.97V64.51H80.5064V68.89H94.6964V64.51H97.7864V81.97H77.4164ZM80.5064 79.06H94.6964V71.8H80.5064V79.06ZM145.05 64.21L156.24 80.23L153.78 82.27L145.05 69.46L136.32 82.27L133.83 80.23L145.05 64.21ZM192.854 73.54C192.854 72.19 193.094 70.93 193.574 69.76C194.024 68.62 194.684 67.63 195.554 66.76C196.364 65.95 197.384 65.26 198.584 64.78C199.724 64.3 201.014 64.09 202.484 64.09C203.894 64.09 205.214 64.3 206.384 64.78C207.554 65.26 208.544 65.95 209.414 66.76C210.224 67.63 210.914 68.62 211.364 69.76C211.844 70.93 212.084 72.19 212.084 73.54C212.084 74.89 211.844 76.15 211.364 77.29C210.914 78.46 210.224 79.48 209.414 80.29C208.544 81.16 207.554 81.79 206.384 82.27C205.214 82.75 203.894 82.99 202.484 82.99C201.014 82.99 199.724 82.75 198.584 82.27C197.384 81.79 196.364 81.16 195.554 80.29C194.684 79.48 194.024 78.46 193.574 77.29C193.094 76.15 192.854 74.89 192.854 73.54ZM195.944 73.54C195.944 74.5 196.094 75.37 196.454 76.15C196.724 76.96 197.204 77.65 197.774 78.22C198.374 78.79 199.034 79.27 199.844 79.6C200.624 79.93 201.494 80.08 202.484 80.08C203.414 80.08 204.284 79.93 205.094 79.6C205.874 79.27 206.564 78.79 207.164 78.22C207.734 77.65 208.184 76.96 208.514 76.15C208.814 75.37 208.994 74.5 208.994 73.54C208.994 72.61 208.814 71.74 208.514 70.93C208.184 70.12 207.734 69.43 207.164 68.86C206.564 68.26 205.874 67.84 205.094 67.48C204.284 67.15 203.414 67 202.484 67C201.494 67 200.624 67.15 199.844 67.48C199.034 67.84 198.374 68.26 197.774 68.86C197.204 69.43 196.724 70.12 196.454 70.93C196.094 71.74 195.944 72.61 195.944 73.54ZM40.3528 131.42H30.9928L41.2228 144.23L38.9128 146.27L30.1828 135.05L21.4528 146.27L19.1128 144.23L29.3428 131.42H19.9828V128.51H40.3528V131.42ZM89.1164 130.55H97.9364V133.46H88.5464L98.6564 144.53L96.4664 146.57L87.6164 136.91L78.7364 146.57L76.5464 144.53L86.6564 133.46H77.2664V130.55H86.0264V126.47H89.1164V130.55ZM155.22 128.51V145.97H152.13V138.71H134.85V135.8H152.13V131.42H134.85V128.51H155.22ZM192.854 145.97V131.42H191.114V128.51H212.654V131.42H195.944V135.65H212.654V138.56H195.944V143.06H212.654V145.97H192.854ZM21.5337 209.97H0.563672V207.06H4.34367V195.42H0.563672V192.51H21.5337V195.42H17.7537V207.06H21.5337V209.97ZM14.6637 207.06V195.42H7.43367V207.06H14.6637ZM69.9973 193.68H78.9673V196.59H57.9973V193.68H66.9073V189.9H69.9973V193.68ZM60.7573 204.75C60.7573 203.82 60.9673 202.89 61.3873 202.02C61.7773 201.18 62.3473 200.43 63.0373 199.8C63.7273 199.17 64.5673 198.69 65.4973 198.3C66.4273 197.97 67.4173 197.76 68.4973 197.76C69.5173 197.76 70.5373 197.97 71.4673 198.3C72.3973 198.69 73.2373 199.17 73.9273 199.8C74.6173 200.43 75.1873 201.18 75.6073 202.02C76.0273 202.89 76.2373 203.82 76.2373 204.75C76.2373 205.74 76.0273 206.64 75.6073 207.45C75.1873 208.32 74.6173 209.04 73.9273 209.67C73.2373 210.3 72.3973 210.81 71.4673 211.17C70.5373 211.56 69.5173 211.71 68.4973 211.71C67.4173 211.71 66.4273 211.56 65.4973 211.17C64.5673 210.81 63.7273 210.3 63.0373 209.67C62.3473 209.04 61.7773 208.32 61.3873 207.45C60.9673 206.64 60.7573 205.74 60.7573 204.75ZM63.8473 204.75C63.8473 205.32 63.9673 205.83 64.2073 206.31C64.4473 206.82 64.7473 207.27 65.1973 207.63C65.5873 207.99 66.0973 208.29 66.6673 208.5C67.2373 208.71 67.8373 208.8 68.4973 208.8C69.1273 208.8 69.7273 208.71 70.3273 208.5C70.8673 208.29 71.3773 207.99 71.7973 207.63C72.2173 207.27 72.5173 206.82 72.7873 206.31C73.0273 205.83 73.1473 205.32 73.1473 204.75C73.1473 204.18 73.0273 203.67 72.7873 203.13C72.5173 202.68 72.2173 202.23 71.7973 201.87C71.3773 201.51 70.8673 201.21 70.3273 200.97C69.7273 200.79 69.1273 200.67 68.4973 200.67C67.8373 200.67 67.2373 200.79 66.6673 200.97C66.0973 201.21 65.5873 201.51 65.1973 201.87C64.7473 202.23 64.4473 202.68 64.2073 203.13C63.9673 203.67 63.8473 204.18 63.8473 204.75Z" fill="black"/>
<path d="M136.401 192.51V195.42H115.431V192.51H136.401ZM118.191 204.15C118.191 203.16 118.401 202.2 118.821 201.33C119.211 200.46 119.781 199.71 120.471 199.05C121.161 198.42 122.001 197.94 122.931 197.55C123.861 197.19 124.851 197.04 125.931 197.04C126.951 197.04 127.971 197.19 128.901 197.55C129.831 197.94 130.671 198.42 131.361 199.05C132.051 199.71 132.621 200.46 133.011 201.33C133.431 202.2 133.641 203.16 133.641 204.15C133.641 205.2 133.431 206.13 133.011 206.97C132.621 207.84 132.051 208.62 131.361 209.25C130.671 209.88 129.831 210.39 128.901 210.72C127.971 211.11 126.951 211.29 125.931 211.29C124.851 211.29 123.861 211.11 122.931 210.72C122.001 210.39 121.161 209.88 120.471 209.25C119.781 208.62 119.211 207.84 118.821 206.97C118.401 206.13 118.191 205.2 118.191 204.15ZM121.281 204.15C121.281 204.75 121.401 205.29 121.641 205.8C121.881 206.31 122.181 206.76 122.631 207.12C123.021 207.54 123.531 207.81 124.101 208.02C124.671 208.26 125.271 208.38 125.931 208.38C126.531 208.38 127.131 208.26 127.731 208.02C128.271 207.81 128.781 207.54 129.201 207.12C129.621 206.76 129.921 206.31 130.191 205.8C130.431 205.29 130.551 204.75 130.551 204.15C130.551 203.58 130.431 203.01 130.191 202.5C129.921 201.99 129.621 201.57 129.201 201.15C128.781 200.82 128.271 200.49 127.731 200.25C127.131 200.04 126.531 199.95 125.931 199.95C125.271 199.95 124.671 200.04 124.101 200.25C123.531 200.49 123.021 200.82 122.631 201.15C122.181 201.57 121.881 201.99 121.641 202.5C121.401 203.01 121.281 203.58 121.281 204.15ZM175.624 204.15C175.624 203.28 175.774 202.44 176.104 201.66C176.404 200.91 176.824 200.19 177.424 199.56C177.934 198.99 178.594 198.45 179.374 198.03C180.124 197.61 180.934 197.34 181.804 197.16V192.51H184.894V197.16C185.764 197.34 186.574 197.61 187.324 198.03C188.104 198.45 188.734 198.99 189.304 199.56C189.844 200.19 190.264 200.91 190.624 201.66C190.924 202.44 191.104 203.28 191.104 204.15C191.104 205.2 190.894 206.13 190.474 206.97C190.054 207.84 189.484 208.62 188.794 209.25C188.104 209.88 187.264 210.39 186.334 210.72C185.404 211.11 184.384 211.29 183.364 211.29C182.284 211.29 181.294 211.11 180.364 210.72C179.434 210.39 178.594 209.88 177.904 209.25C177.214 208.62 176.644 207.84 176.254 206.97C175.834 206.13 175.624 205.2 175.624 204.15ZM178.714 204.15C178.714 204.75 178.834 205.29 179.074 205.8C179.314 206.31 179.614 206.76 180.064 207.12C180.454 207.54 180.964 207.81 181.534 208.02C182.104 208.26 182.704 208.38 183.364 208.38C183.994 208.38 184.594 208.26 185.194 208.02C185.734 207.81 186.244 207.54 186.664 207.12C187.084 206.76 187.384 206.31 187.654 205.8C187.894 205.29 188.014 204.75 188.014 204.15C188.014 203.58 187.894 203.01 187.654 202.5C187.384 201.99 187.084 201.57 186.664 201.15C186.244 200.82 185.734 200.49 185.194 200.25C184.594 200.04 183.994 199.95 183.364 199.95C182.704 199.95 182.104 200.04 181.534 200.25C180.964 200.49 180.454 200.82 180.064 201.15C179.614 201.57 179.314 201.99 179.074 202.5C178.834 203.01 178.714 203.58 178.714 204.15ZM240.798 192.21L252.138 209.97H229.428L240.798 192.21ZM234.678 207.06H246.888L240.798 197.61L234.678 207.06Z" fill="#979797"/>
</svg>
