<svg width="221" height="164" viewBox="0 0 221 164" fill="none" xmlns="http://www.w3.org/2000/svg">
<path d="M49.1996 13.27C50.8096 13.27 52.1396 11.94 52.1396 10.33C52.1396 8.72 50.8096 7.39 49.1996 7.39C47.5896 7.39 46.2596 8.72 46.2596 10.33C46.2596 11.94 47.5896 13.27 49.1996 13.27ZM89.4977 16.525V13.13H118.023V16.525H89.4977ZM172.569 25.695H168.964V0.214999H172.569V25.695ZM4.41055 94.695H0.805548V69.215H4.41055V94.695ZM10.6405 81.045C10.6405 81.71 10.3955 82.305 9.97555 82.76C9.48555 83.25 8.92555 83.495 8.19055 83.495C7.45555 83.495 6.86055 83.25 6.44055 82.76C5.95055 82.305 5.74055 81.71 5.74055 81.045C5.74055 80.345 5.95055 79.785 6.44055 79.295C6.86055 78.84 7.45555 78.595 8.19055 78.595C8.92555 78.595 9.48555 78.84 9.97555 79.295C10.3955 79.785 10.6405 80.345 10.6405 81.045ZM74.9864 94.695H71.4164V69.215H74.9864V94.695ZM70.0514 81.045C70.0514 81.71 69.8064 82.305 69.3514 82.76C68.8964 83.25 68.3014 83.495 67.6014 83.495C66.8664 83.495 66.2714 83.25 65.8164 82.76C65.3614 82.305 65.1514 81.71 65.1514 81.045C65.1514 80.345 65.3614 79.785 65.8164 79.295C66.2714 78.84 66.8664 78.595 67.6014 78.595C68.3014 78.595 68.8964 78.84 69.3514 79.295C69.8064 79.785 70.0514 80.345 70.0514 81.045ZM123.792 85.525V82.13H153.017V85.525H123.792ZM140.837 79.015C140.837 79.68 140.627 80.275 140.172 80.73C139.682 81.22 139.122 81.43 138.422 81.43C137.652 81.43 137.092 81.22 136.637 80.73C136.147 80.275 135.972 79.68 135.972 79.015C135.972 78.315 136.147 77.755 136.637 77.265C137.092 76.81 137.652 76.565 138.422 76.565C139.122 76.565 139.682 76.81 140.172 77.265C140.627 77.755 140.837 78.315 140.837 79.015ZM190.798 82.13V78.735H220.023V82.13H190.798ZM207.913 85.665C207.913 86.33 207.668 86.96 207.213 87.415C206.723 87.94 206.128 88.185 205.428 88.185C204.658 88.185 204.098 87.94 203.608 87.415C203.153 86.96 202.908 86.33 202.908 85.665C202.908 84.965 203.153 84.405 203.608 83.88C204.098 83.425 204.658 83.145 205.428 83.145C206.128 83.145 206.723 83.425 207.213 83.88C207.668 84.405 207.913 84.965 207.913 85.665ZM4.41055 163.695H0.805548V138.215H4.41055V163.695ZM10.6405 146.3C10.6405 147 10.3955 147.56 9.97555 148.05C9.48555 148.505 8.92555 148.75 8.19055 148.75C7.45555 148.75 6.86055 148.505 6.44055 148.05C5.95055 147.56 5.74055 147 5.74055 146.3C5.74055 145.635 5.95055 145.04 6.44055 144.585C6.86055 144.095 7.45555 143.85 8.19055 143.85C8.92555 143.85 9.48555 144.095 9.97555 144.585C10.3955 145.04 10.6405 145.635 10.6405 146.3ZM10.6405 154.455C10.6405 155.12 10.3955 155.715 9.97555 156.17C9.48555 156.66 8.92555 156.905 8.19055 156.905C7.45555 156.905 6.86055 156.66 6.44055 156.17C5.95055 155.715 5.74055 155.12 5.74055 154.455C5.74055 153.79 5.95055 153.195 6.44055 152.705C6.86055 152.25 7.45555 152.005 8.19055 152.005C8.92555 152.005 9.48555 152.25 9.97555 152.705C10.3955 153.195 10.6405 153.79 10.6405 154.455ZM74.9864 163.695H71.4164V138.215H74.9864V163.695ZM70.2614 146.3C70.2614 147 70.0164 147.56 69.5614 148.05C69.1064 148.505 68.5114 148.75 67.8114 148.75C67.0414 148.75 66.4814 148.505 66.0264 148.05C65.5714 147.56 65.3614 147 65.3614 146.3C65.3614 145.635 65.5714 145.04 66.0264 144.585C66.4814 144.095 67.0414 143.85 67.8114 143.85C68.5114 143.85 69.1064 144.095 69.5614 144.585C70.0164 145.04 70.2614 145.635 70.2614 146.3ZM70.2614 154.455C70.2614 155.12 70.0164 155.715 69.5614 156.17C69.1064 156.66 68.5114 156.905 67.8114 156.905C67.0414 156.905 66.4814 156.66 66.0264 156.17C65.5714 155.715 65.3614 155.12 65.3614 154.455C65.3614 153.79 65.5714 153.195 66.0264 152.705C66.4814 152.25 67.0414 152.005 67.8114 152.005C68.5114 152.005 69.1064 152.25 69.5614 152.705C70.0164 153.195 70.2614 153.79 70.2614 154.455ZM123.792 154.525V151.13H153.017V154.525H123.792ZM135.762 148.015C135.762 148.68 135.517 149.275 135.062 149.73C134.607 150.22 134.012 150.43 133.312 150.43C132.577 150.43 131.982 150.22 131.562 149.73C131.072 149.275 130.862 148.68 130.862 148.015C130.862 147.315 131.072 146.755 131.562 146.265C131.982 145.81 132.577 145.565 133.312 145.565C134.012 145.565 134.607 145.81 135.062 146.265C135.517 146.755 135.762 147.315 135.762 148.015ZM145.947 148.015C145.947 148.68 145.702 149.275 145.247 149.73C144.792 150.22 144.197 150.43 143.497 150.43C142.762 150.43 142.167 150.22 141.747 149.73C141.257 149.275 141.047 148.68 141.047 148.015C141.047 147.315 141.257 146.755 141.747 146.265C142.167 145.81 142.762 145.565 143.497 145.565C144.197 145.565 144.792 145.81 145.247 146.265C145.702 146.755 145.947 147.315 145.947 148.015ZM190.798 151.13V147.735H220.023V151.13H190.798ZM207.913 154.665C207.913 155.33 207.668 155.96 207.213 156.415C206.723 156.94 206.128 157.185 205.428 157.185C204.658 157.185 204.098 156.94 203.608 156.415C203.153 155.96 202.908 155.33 202.908 154.665C202.908 153.965 203.153 153.405 203.608 152.88C204.098 152.425 204.658 152.145 205.428 152.145C206.128 152.145 206.723 152.425 207.213 152.88C207.668 153.405 207.913 153.965 207.913 154.665Z" fill="black"/>
</svg>
