<svg width="188" height="188" viewBox="0 0 188 188" fill="none" xmlns="http://www.w3.org/2000/svg">
<circle cx="94" cy="95" r="91" fill="#F4F4F4"/>
<path d="M110.732 182.043H110.542C110.162 179.93 110.075 177.715 109.347 175.725C108.002 172.052 106.38 168.465 104.694 164.924C102.779 160.904 99.2262 158.728 94.8819 158.443C90.6484 158.165 86.3516 158.59 82.0944 158.829C79.4515 158.975 76.8322 159.438 74.1893 159.616C72.3297 159.747 70.4543 159.616 68.5869 159.646C65.4375 159.701 62.3593 159.438 59.3602 158.366C55.7598 157.085 53.3068 154.732 52.0565 151.252C51.2731 149.084 51.0595 146.816 51.1386 144.509C51.2889 140.166 51.4789 135.822 51.463 131.479C51.4472 128.308 51.1307 125.137 49.6114 122.22C48.3532 119.806 46.3037 118.039 44.4442 116.11C42.1494 113.734 41.1286 111.049 42.3947 107.824C43.0989 106.019 44.5391 105.016 46.3591 104.568C48.9704 103.92 51.3285 104.769 53.5996 105.965C55.8943 107.176 57.6906 108.935 59.3998 110.81C59.6926 111.134 60.0724 111.388 60.563 111.813C60.745 111.157 60.9191 110.725 60.9666 110.285C61.1407 108.665 61.2356 107.037 61.4335 105.417C61.5205 104.723 61.7025 104.013 62.0032 103.38C62.6204 102.069 64.2426 101.868 65.1763 103.002C65.6353 103.565 65.9835 104.252 66.2525 104.931C67.8114 108.873 70.4306 111.944 74.2289 113.981C76.0726 114.968 78.494 114.451 79.8234 113.124C82.2764 110.679 80.5276 105.88 77.3703 105.054C76.31 104.777 75.2101 104.615 74.1181 104.46C71.6571 104.121 69.9083 102.107 69.7817 99.7772C69.576 95.8116 72.6146 92.7178 76.6028 91.8383C80.3773 91.0051 84.2389 90.7736 88.0925 90.7273C95.5308 90.6425 102.969 90.7428 110.399 90.6116C115.147 90.5267 119.887 90.3107 124.611 90.8585C126.898 91.1208 129.217 91.2057 131.345 92.2009C131.408 92.2318 131.511 92.1778 131.765 92.1392C131.44 91.7689 131.219 91.4294 130.918 91.198C129.407 90.033 127.943 88.7831 126.328 87.7724C124.659 86.7386 122.894 85.8051 121.058 85.0876C118.249 83.9843 115.226 84.0923 112.267 84.046C105.153 83.9226 98.0313 83.9226 90.9175 83.7606C88.1795 83.6989 85.4495 83.3208 82.7116 83.0894C81.6434 82.9968 80.5355 82.7113 79.5069 82.8733C74.9727 83.5831 71.0399 85.481 68.389 89.246C66.8776 91.3908 65.7065 93.7594 64.4009 96.0431C63.9419 96.8454 63.388 97.3778 62.3593 97.1695C61.2831 96.9534 60.6738 96.3594 60.6026 95.3101C60.476 93.5279 60.3889 91.7457 60.294 89.9558C60.199 88.2508 59.7242 87.9267 58.0388 88.4745C57.6273 88.6057 57.2395 88.8448 56.8835 89.084C56.1001 89.6086 55.3642 90.195 54.5808 90.7119C51.1544 92.9801 47.641 92.8336 44.1118 90.9742C42.0069 89.871 41.2394 87.7184 42.1177 85.1339C42.9328 82.7113 44.3571 80.5819 45.8131 78.5066C47.6252 75.9143 48.3295 73.1677 47.4986 70.0971C47.0555 68.4538 46.5886 66.795 45.1247 65.6841C42.0702 63.3618 38.8576 61.3327 35.1859 60.0134C33.6033 59.4425 32.0128 58.7327 30.628 57.7992C26.0859 54.7054 25.4924 48.3405 29.0058 44.02C31.8941 40.471 35.0039 37.0918 37.7893 33.4734C40.1711 30.3797 42.4263 27.147 44.3413 23.7678C45.4887 21.7387 45.9002 19.3085 46.5728 17.0479C46.8022 16.2919 46.9368 15.5821 47.7755 15.1886C50.284 14.0082 52.7133 12.6735 55.2613 11.5934C70.0033 5.34411 85.3862 2.92927 101.418 4.43372C113.937 5.61414 125.687 9.18624 136.726 15.042C144.56 19.2005 151.587 24.4082 157.901 30.5185C161.312 33.8206 164.398 37.4081 167.231 41.204C172.533 48.3096 176.695 55.9939 179.686 64.2799C183.912 75.9837 185.486 88.0425 184.64 100.41C184.117 108.048 182.582 115.501 180.058 122.737C176.853 131.941 172.248 140.444 166.202 148.19C164.833 149.941 163.369 151.623 161.953 153.343L161.692 153.251C161.636 152.996 161.581 152.749 161.533 152.495C160.679 147.95 160.141 143.329 158.89 138.893C157.553 134.187 155.67 129.619 153.787 125.083C151.167 118.749 149.608 112.237 149.735 105.386C149.767 103.789 149.941 102.192 149.965 100.603C149.98 99.6306 149.972 98.6199 149.711 97.6941C149.324 96.3208 147.97 96.0816 147.037 97.1926C146.554 97.7712 146.206 98.5042 145.976 99.2294C145.446 100.919 142.574 102.115 140.96 100.657C139.242 99.1137 137.541 97.5629 135.824 96.0199C135.594 95.8116 135.349 95.6341 135.104 95.4413C135.041 95.8502 135.136 96.1125 135.27 96.3439C137.771 100.672 138.989 105.324 139.155 110.277C139.329 115.585 138.942 120.801 136.702 125.746C136.164 126.927 135.65 128.123 135.175 129.326C134.629 130.715 134.898 132.042 135.856 132.698C136.979 133.469 137.945 133.022 138.847 132.242C138.942 132.165 139.06 132.119 139.179 132.057C141.142 131.077 142.487 131.556 142.962 133.647C143.231 134.812 143.167 136.1 142.993 137.303C142.661 139.687 142.605 142.033 143.397 144.332C144.141 146.492 145.074 148.591 145.699 150.782C146.435 153.39 147.053 156.044 147.48 158.705C147.804 160.727 147.773 162.81 147.86 164.862C147.891 165.603 147.591 166.189 146.918 166.66C138.15 172.808 128.584 177.36 118.186 180.207C115.717 180.878 113.216 181.426 110.732 182.036V182.043Z" fill="#ADDAFF"/>
<circle cx="94" cy="94.209" r="91" stroke="#ADDAFF" stroke-width="5"/>
<path d="M137.5 124L80.9999 109.5C79.9999 104.5 76.9999 105 74.4999 104.5C71.9999 104 69 103.001 69.5 98.5C69.9938 94.0549 73.9999 92.0009 80.4999 91.0009C89.4999 90.5011 107 91.0002 119 90.4993C130.002 90.0401 131.5 92.5007 134 94.5007C141.5 104.001 139.5 118.001 137.5 124Z" fill="url(#paint0_linear_1101_38795)"/>
<path d="M133.087 93.9379V121.874H128.143V98.5939H100.495V93.9379H133.087Z" fill="black"/>
<defs>
<linearGradient id="paint0_linear_1101_38795" x1="110.271" y1="90.4672" x2="104.119" y2="112.79" gradientUnits="userSpaceOnUse">
<stop stop-color="#FF7777"/>
<stop offset="1" stop-color="white" stop-opacity="0"/>
</linearGradient>
</defs>
</svg>
