<svg width="188" height="188" viewBox="0 0 188 188" fill="none" xmlns="http://www.w3.org/2000/svg">
<ellipse cx="93.837" cy="95" rx="90.837" ry="91" fill="#F4F4F4"/>
<path d="M162.397 153.361C161.797 147.912 160.812 142.578 159.22 137.406C158.127 133.861 156.596 130.446 155.319 126.954C154.288 124.126 153.188 121.312 152.387 118.414C151.464 115.069 150.795 111.647 150.856 108.14C150.902 105.342 151.064 102.544 151.103 99.7461C151.11 99.0601 150.91 98.3356 150.641 97.7036C150.287 96.8711 149.01 96.7247 148.387 97.4723C147.91 98.0427 147.509 98.7364 147.256 99.4378C146.478 101.604 144.224 102.344 142.293 101.095C140.316 99.8232 138.946 97.9502 137.315 96.3393C135.138 94.1811 133.091 91.8303 130.652 90.0113C127.928 87.9687 125.174 85.7412 121.658 85.1554C119.396 84.7777 117.088 84.5773 114.803 84.5311C110.255 84.4386 105.701 84.6004 101.161 84.4771C96.8141 84.3615 92.4747 84.0069 88.1277 83.7834C85.981 83.6755 83.8114 83.398 81.6955 83.5907C79.295 83.8142 77.1407 84.9473 75.1249 86.2961C72.4628 88.0766 70.9471 90.7358 69.5314 93.472C68.9544 94.5897 68.4004 95.715 67.808 96.8249C67.454 97.4878 66.877 97.8577 66.1307 97.6805C65.3151 97.4878 64.5073 97.1717 64.338 96.1929C64.2226 95.4992 64.1841 94.7901 64.1533 94.0809C64.0764 92.6088 64.0072 91.1366 63.961 89.6567C63.9302 88.8782 63.5071 88.6393 62.8069 88.7318C61.7451 88.8705 60.8526 89.3407 59.9986 90.0035C58.4752 91.1905 56.9672 92.4546 54.9437 92.6858C52.2739 92.9941 49.758 92.655 47.5344 90.9439C46.0572 89.8031 45.711 87.5448 46.2803 85.8105C47.1882 83.0666 48.7809 80.6849 50.3812 78.3263C52.7432 74.8501 52.1123 69.5472 49.8503 66.811C48.9732 65.755 47.7268 64.9765 46.5727 64.1826C43.9798 62.4021 41.1716 61.0687 38.2094 59.9665C34.9856 58.7718 32.539 56.6676 31.7157 53.1143C30.8925 49.5764 31.9158 46.5319 34.2009 43.8033C36.5629 40.9746 38.8942 38.1227 41.1639 35.2169C42.8642 33.0433 44.5569 30.8466 46.0572 28.5343C47.7268 25.9676 49.4272 23.3933 50.0042 20.2793C50.2504 18.9305 50.6274 17.597 51.0275 16.279C51.1429 15.8859 51.4737 15.4466 51.8277 15.2539C61.8452 9.68889 72.5628 6.14333 83.9422 4.74823C87.766 4.27806 91.6515 3.98516 95.5061 4.00058C106.924 4.04683 117.98 6.18187 128.59 10.4597C136.153 13.5119 143.201 17.5045 149.641 22.5069C152.226 24.5186 154.649 26.7461 157.081 28.9582C163.036 34.3768 167.921 40.6817 172.084 47.5416C178.07 57.4152 181.955 68.0827 183.84 79.4825C184.902 85.8876 185.194 92.339 184.879 98.8058C184.517 106.244 183.186 113.52 180.955 120.642C178.239 129.313 174.338 137.406 169.16 144.852C167.129 147.773 164.805 150.478 162.605 153.284C162.574 153.323 162.497 153.323 162.397 153.353V153.361Z" fill="#ADDAFF"/>
<path d="M64.2819 112.109C64.4127 111.678 64.605 111.246 64.6589 110.807C64.8281 109.219 64.9282 107.623 65.0897 106.028C65.1513 105.419 65.2744 104.81 65.4667 104.232C65.736 103.423 66.3131 102.659 67.1594 102.791C67.8519 102.898 68.6828 103.423 69.0598 104.016C69.7599 105.118 70.0908 106.444 70.7294 107.6C72.0143 109.943 73.7685 111.924 75.9074 113.512C77.2461 114.506 79.5159 113.89 80.016 112.564C80.3006 111.801 80.0467 111.161 79.6082 110.583C78.8619 109.604 78.0232 108.702 77.3231 107.693C75.4919 105.08 74.4379 102.166 74.0839 98.9829C73.8839 97.187 74.0839 95.4836 74.8149 93.8495C75.6073 92.0845 76.9307 91.0131 78.8388 90.5429C80.9931 90.0111 83.0089 90.4273 85.0632 91.0362C88.0253 91.9072 90.9952 92.8244 94.0266 93.4025C96.1809 93.811 98.4352 93.8264 100.636 93.7725C104.683 93.6645 108.737 93.5104 112.769 93.1327C116.039 92.8244 119.278 92.8861 122.502 93.2637C127.157 93.8033 131.204 95.7071 134.05 99.5455C135.012 100.84 135.643 102.474 136.089 104.047C137.497 109.011 138.097 114.113 138.074 119.27C138.059 121.937 137.797 124.603 137.49 127.255C137.359 128.426 136.797 129.536 136.505 130.693C136.243 131.741 136.682 132.82 137.497 133.259C138.421 133.752 139.221 133.514 140.052 132.889C140.852 132.288 141.814 131.687 142.852 132.157C143.876 132.627 144.368 133.591 144.36 134.724C144.36 135.88 144.407 137.067 144.206 138.2C143.714 141.059 144.183 143.749 145.245 146.416C146.615 149.846 147.838 153.346 148.33 157.014C148.692 159.72 148.792 162.464 148.915 165.192C148.938 165.616 148.607 166.202 148.253 166.472C143.722 169.886 138.859 172.761 133.75 175.212C127.38 178.272 120.725 180.508 113.815 181.988C113.238 182.111 112.892 182.08 112.815 181.356C112.5 178.272 111.584 175.351 110.284 172.546C109.238 170.287 108.307 167.975 107.299 165.709C105.829 162.41 103.313 160.29 99.8586 159.35C98.6661 159.026 97.3889 158.787 96.1578 158.818C91.7415 158.941 87.3098 159.003 82.9166 159.458C79.3389 159.828 75.7766 160.275 72.1835 160.059C69.7138 159.905 67.2286 160.059 64.782 159.373C61.0812 158.325 58.0344 156.398 56.4417 152.86C55.6185 151.033 55.2107 148.883 55.1722 146.871C55.0876 142.293 55.4569 137.707 55.4184 133.128C55.3954 130.592 55.0338 128.049 54.6029 125.544C54.1336 122.784 52.5101 120.611 50.5867 118.645C48.9248 116.934 47.0398 115.354 46.3473 112.942C45.5471 110.151 46.3473 106.475 49.925 105.218C52.1716 104.432 54.4105 104.987 56.5187 105.997C59.0269 107.199 61.0966 108.957 62.8585 111.092C63.2124 111.516 63.474 112.009 63.7818 112.471L64.2896 112.14L64.2819 112.109Z" fill="#ADDAFF"/>
<ellipse cx="93.837" cy="94.209" rx="90.837" ry="91" stroke="#ADDAFF" stroke-width="5"/>
<path d="M64.5 96.9998C64 95 64 91.6673 64 89.0006C67.6667 88.1673 75.8 86.1 75 86.5C74 87 72.2593 88.8067 71.5 89.9998C68.6362 94.5 68.5 96.9998 67.5 97.4998C66.5 97.9998 64.8429 98.3713 64.5 96.9998Z" fill="url(#paint0_linear_1093_35965)"/>
<path d="M64.6588 110.806C64.605 111.246 64.4126 111.677 64.2818 112.109L64.2895 112.14L63.7817 112.471L75.9074 113.512C73.7685 111.924 72.0142 109.943 70.7294 107.6C70.0908 106.444 69.7599 105.118 69.0598 104.016C68.6828 103.422 67.8518 102.898 67.1594 102.79C66.313 102.659 65.736 103.422 65.4667 104.231C65.2744 104.81 65.1513 105.418 65.0897 106.027C64.9281 107.623 64.8281 109.218 64.6588 110.806Z" fill="url(#paint1_linear_1093_35965)"/>
<path d="M67.4517 93.536L85.3557 119.168L81.4197 122.432L67.4517 101.936L53.4837 122.432L49.4997 119.168L67.4517 93.536Z" fill="black"/>
<defs>
<linearGradient id="paint0_linear_1093_35965" x1="67" y1="98" x2="64.6297" y2="88.9218" gradientUnits="userSpaceOnUse">
<stop offset="0.112489" stop-color="#FF7777"/>
<stop offset="1" stop-color="white" stop-opacity="0"/>
</linearGradient>
<linearGradient id="paint1_linear_1093_35965" x1="67.5" y1="104.5" x2="66.7254" y2="112.739" gradientUnits="userSpaceOnUse">
<stop stop-color="#FF7777"/>
<stop offset="1" stop-color="white" stop-opacity="0"/>
</linearGradient>
</defs>
</svg>
